# WaveFront *.obj file (generated by Autodesk ATF)

mtllib Cache_Mécanisme.mtl

g Corps1

v 18.000000 204.000000 0.000000
v 0.000000 204.000000 0.000000
v 0.000000 204.000000 450.000000
v 18.000000 204.000000 450.000000
v 18.000000 18.000000 0.000000
v 18.000000 18.000000 450.000000
v 0.000000 18.000000 0.000000
v 0.000000 18.000000 450.000000
vt 0.000000 0.000000 0.000000
vt 1.800000 0.000000 0.000000
vt 0.000000 45.000000 0.000000
vt 1.800000 45.000000 0.000000
vt 0.000000 0.000000 0.000000
vt 18.600000 0.000000 0.000000
vt 0.000000 45.000000 0.000000
vt 18.600000 45.000000 0.000000
vt 0.000000 0.000000 0.000000
vt 1.800000 0.000000 0.000000
vt 0.000000 45.000000 0.000000
vt 1.800000 45.000000 0.000000
vt 0.000000 0.000000 0.000000
vt 18.600000 0.000000 0.000000
vt 0.000000 45.000000 0.000000
vt 18.600000 45.000000 0.000000
vt -0.900000 -9.300000 0.000000
vt 0.900000 -9.300000 0.000000
vt -0.900000 9.300000 0.000000
vt 0.900000 9.300000 0.000000
vt 0.900000 9.300000 0.000000
vt -0.900000 9.300000 0.000000
vt 0.900000 -9.300000 0.000000
vt -0.900000 -9.300000 0.000000
vn 0.000000 0.100000 0.000000
vn 0.000000 0.100000 0.000000
vn 0.000000 0.100000 0.000000
vn 0.000000 0.100000 0.000000
vn 0.100000 0.000000 0.000000
vn 0.100000 0.000000 0.000000
vn 0.100000 0.000000 0.000000
vn 0.100000 0.000000 0.000000
vn 0.000000 -0.100000 0.000000
vn 0.000000 -0.100000 0.000000
vn 0.000000 -0.100000 0.000000
vn 0.000000 -0.100000 0.000000
vn -0.100000 0.000000 0.000000
vn -0.100000 0.000000 0.000000
vn -0.100000 0.000000 0.000000
vn -0.100000 0.000000 0.000000
vn 0.000000 0.000000 0.100000
vn 0.000000 0.000000 0.100000
vn 0.000000 0.000000 0.100000
vn 0.000000 0.000000 0.100000
vn 0.000000 0.000000 -0.100000
vn 0.000000 0.000000 -0.100000
vn 0.000000 0.000000 -0.100000
vn 0.000000 0.000000 -0.100000
usemtl Peinture_-_Brillant_émaillé_(noir)
f 1/1/1 2/2/2 4/3/3
f 4/3/3 2/2/2 3/4/4
f 5/5/5 1/6/6 6/7/7
f 6/7/7 1/6/6 4/8/8
f 7/9/9 5/10/10 8/11/11
f 8/11/11 5/10/10 6/12/12
f 2/13/13 7/14/14 3/15/15
f 3/15/15 7/14/14 8/16/16
f 8/17/17 6/18/18 3/19/19
f 3/19/19 6/18/18 4/20/20
f 2/21/21 1/22/22 7/23/23
f 7/23/23 1/22/22 5/24/24
g Corps2

v 836.000000 18.000000 0.000000
v 836.000000 204.000000 0.000000
v 836.000000 204.000000 450.000000
v 836.000000 18.000000 450.000000
v 818.000000 18.000000 0.000000
v 818.000000 18.000000 450.000000
v 818.000000 204.000000 0.000000
v 818.000000 204.000000 450.000000
vt 0.000000 0.000000 0.000000
vt 18.600000 0.000000 0.000000
vt 0.000000 45.000000 0.000000
vt 18.600000 45.000000 0.000000
vt 0.000000 0.000000 0.000000
vt 1.800000 0.000000 0.000000
vt 0.000000 45.000000 0.000000
vt 1.800000 45.000000 0.000000
vt -0.000000 0.000000 0.000000
vt 18.600000 0.000000 0.000000
vt -0.000000 45.000000 0.000000
vt 18.600000 45.000000 0.000000
vt -0.000000 0.000000 0.000000
vt 1.800000 0.000000 0.000000
vt -0.000000 45.000000 0.000000
vt 1.800000 45.000000 0.000000
vt 0.900000 9.300000 0.000000
vt -0.900000 9.300000 0.000000
vt 0.900000 -9.300000 0.000000
vt -0.900000 -9.300000 0.000000
vt 0.900000 9.300000 0.000000
vt -0.900000 9.300000 0.000000
vt 0.900000 -9.300000 0.000000
vt -0.900000 -9.300000 0.000000
vn 0.100000 0.000000 0.000000
vn 0.100000 0.000000 0.000000
vn 0.100000 0.000000 0.000000
vn 0.100000 0.000000 0.000000
vn 0.000000 -0.100000 0.000000
vn 0.000000 -0.100000 0.000000
vn 0.000000 -0.100000 0.000000
vn 0.000000 -0.100000 0.000000
vn -0.100000 0.000000 0.000000
vn -0.100000 0.000000 0.000000
vn -0.100000 0.000000 0.000000
vn -0.100000 0.000000 0.000000
vn 0.000000 0.100000 0.000000
vn 0.000000 0.100000 0.000000
vn 0.000000 0.100000 0.000000
vn 0.000000 0.100000 0.000000
vn 0.000000 0.000000 0.100000
vn 0.000000 0.000000 0.100000
vn 0.000000 0.000000 0.100000
vn 0.000000 0.000000 0.100000
vn -0.000000 0.000000 -0.100000
vn -0.000000 0.000000 -0.100000
vn -0.000000 0.000000 -0.100000
vn -0.000000 0.000000 -0.100000
f 9/25/25 10/26/26 12/27/27
f 12/27/27 10/26/26 11/28/28
f 13/29/29 9/30/30 14/31/31
f 14/31/31 9/30/30 12/32/32
f 15/33/33 13/34/34 16/35/35
f 16/35/35 13/34/34 14/36/36
f 10/37/37 15/38/38 11/39/39
f 11/39/39 15/38/38 16/40/40
f 11/41/41 16/42/42 12/43/43
f 12/43/43 16/42/42 14/44/44
f 15/45/45 10/46/46 13/47/47
f 13/47/47 10/46/46 9/48/48
g Corps3

v 836.000000 18.000000 0.000000
v 0.000000 18.000000 0.000000
v 0.000000 18.000000 450.000000
v 836.000000 18.000000 450.000000
v 836.000000 0.000000 0.000000
v 836.000000 0.000000 450.000000
v 0.000000 0.000000 0.000000
v 0.000000 0.000000 450.000000
vt 0.000000 0.000000 0.000000
vt 83.600000 0.000000 0.000000
vt 0.000000 45.000000 0.000000
vt 83.600000 45.000000 0.000000
vt 0.000000 0.000000 0.000000
vt 1.800000 0.000000 0.000000
vt 0.000000 45.000000 0.000000
vt 1.800000 45.000000 0.000000
vt 0.000000 0.000000 0.000000
vt 83.600000 0.000000 0.000000
vt 0.000000 45.000000 0.000000
vt 83.600000 45.000000 0.000000
vt 0.000000 0.000000 0.000000
vt 1.800000 0.000000 0.000000
vt 0.000000 45.000000 0.000000
vt 1.800000 45.000000 0.000000
vt -41.800000 -0.900000 0.000000
vt 41.800000 -0.900000 0.000000
vt -41.800000 0.900000 0.000000
vt 41.800000 0.900000 0.000000
vt 41.800000 0.900000 0.000000
vt -41.800000 0.900000 0.000000
vt 41.800000 -0.900000 0.000000
vt -41.800000 -0.900000 0.000000
vn 0.000000 0.100000 0.000000
vn 0.000000 0.100000 0.000000
vn 0.000000 0.100000 0.000000
vn 0.000000 0.100000 0.000000
vn 0.100000 0.000000 0.000000
vn 0.100000 0.000000 0.000000
vn 0.100000 0.000000 0.000000
vn 0.100000 0.000000 0.000000
vn 0.000000 -0.100000 0.000000
vn 0.000000 -0.100000 0.000000
vn 0.000000 -0.100000 0.000000
vn 0.000000 -0.100000 0.000000
vn -0.100000 0.000000 0.000000
vn -0.100000 0.000000 0.000000
vn -0.100000 0.000000 0.000000
vn -0.100000 0.000000 0.000000
vn 0.000000 0.000000 0.100000
vn 0.000000 0.000000 0.100000
vn 0.000000 0.000000 0.100000
vn 0.000000 0.000000 0.100000
vn 0.000000 0.000000 -0.100000
vn 0.000000 0.000000 -0.100000
vn 0.000000 0.000000 -0.100000
vn 0.000000 0.000000 -0.100000
f 17/49/49 18/50/50 20/51/51
f 20/51/51 18/50/50 19/52/52
f 21/53/53 17/54/54 22/55/55
f 22/55/55 17/54/54 20/56/56
f 23/57/57 21/58/58 24/59/59
f 24/59/59 21/58/58 22/60/60
f 18/61/61 23/62/62 19/63/63
f 19/63/63 23/62/62 24/64/64
f 24/65/65 22/66/66 19/67/67
f 19/67/67 22/66/66 20/68/68
f 18/69/69 17/70/70 23/71/71
f 23/71/71 17/70/70 21/72/72
g Corps6

v 818.000000 204.000000 450.000000
v 818.000000 257.000000 450.000000
v 818.000000 257.000000 468.000000
v 818.000000 204.000000 468.000000
v 836.000000 204.000000 450.000000
v 836.000000 204.000000 468.000000
v 836.000000 0.000000 450.000000
v 836.000000 0.000000 468.000000
v 0.000000 0.000000 450.000000
v 0.000000 0.000000 468.000000
v 0.000000 204.000000 450.000000
v 0.000000 204.000000 468.000000
v 18.000000 204.000000 450.000000
v 18.000000 204.000000 468.000000
v 18.000000 257.000000 450.000000
v 18.000000 257.000000 468.000000
vt 0.000000 0.000000 0.000000
vt 5.300000 0.000000 0.000000
vt 0.000000 1.800000 0.000000
vt 5.300000 1.800000 0.000000
vt 0.000000 0.000000 0.000000
vt 1.800000 0.000000 0.000000
vt 0.000000 1.800000 0.000000
vt 1.800000 1.800000 0.000000
vt 0.000000 0.000000 0.000000
vt 20.400000 0.000000 0.000000
vt 0.000000 1.800000 0.000000
vt 20.400000 1.800000 0.000000
vt 0.000000 0.000000 0.000000
vt 83.600000 0.000000 0.000000
vt 0.000000 1.800000 0.000000
vt 83.600000 1.800000 0.000000
vt 0.000000 0.000000 0.000000
vt 20.400000 0.000000 0.000000
vt 0.000000 1.800000 0.000000
vt 20.400000 1.800000 0.000000
vt 0.000000 0.000000 0.000000
vt 1.800000 0.000000 0.000000
vt 0.000000 1.800000 0.000000
vt 1.800000 1.800000 0.000000
vt 0.000000 0.000000 0.000000
vt 5.300000 0.000000 0.000000
vt 0.000000 1.800000 0.000000
vt 5.300000 1.800000 0.000000
vt 0.000000 0.000000 0.000000
vt 80.000000 0.000000 0.000000
vt 0.000000 1.800000 0.000000
vt 80.000000 1.800000 0.000000
vt 40.000000 12.850000 0.000000
vt -40.000000 12.850000 0.000000
vt 40.000000 7.550000 0.000000
vt -40.000000 7.550000 0.000000
vt 41.800000 -12.850000 0.000000
vt -41.800000 -12.850000 0.000000
vt -41.800000 7.550000 0.000000
vt 41.800000 7.550000 0.000000
vt 40.000000 12.850000 0.000000
vt -40.000000 12.850000 0.000000
vt 40.000000 7.550000 0.000000
vt -40.000000 7.550000 0.000000
vt 41.800000 -12.850000 0.000000
vt -41.800000 -12.850000 0.000000
vt -41.800000 7.550000 0.000000
vt 41.800000 7.550000 0.000000
vn 0.100000 0.000000 0.000000
vn 0.100000 0.000000 0.000000
vn 0.100000 0.000000 0.000000
vn 0.100000 0.000000 0.000000
vn 0.000000 0.100000 0.000000
vn 0.000000 0.100000 0.000000
vn 0.000000 0.100000 0.000000
vn 0.000000 0.100000 0.000000
vn 0.100000 0.000000 0.000000
vn 0.100000 0.000000 0.000000
vn 0.100000 0.000000 0.000000
vn 0.100000 0.000000 0.000000
vn 0.000000 -0.100000 0.000000
vn 0.000000 -0.100000 0.000000
vn 0.000000 -0.100000 0.000000
vn 0.000000 -0.100000 0.000000
vn -0.100000 0.000000 0.000000
vn -0.100000 0.000000 0.000000
vn -0.100000 0.000000 0.000000
vn -0.100000 0.000000 0.000000
vn 0.000000 0.100000 0.000000
vn 0.000000 0.100000 0.000000
vn 0.000000 0.100000 0.000000
vn 0.000000 0.100000 0.000000
vn -0.100000 0.000000 0.000000
vn -0.100000 0.000000 0.000000
vn -0.100000 0.000000 0.000000
vn -0.100000 0.000000 0.000000
vn 0.000000 0.100000 0.000000
vn 0.000000 0.100000 0.000000
vn 0.000000 0.100000 0.000000
vn 0.000000 0.100000 0.000000
vn 0.000000 0.000000 0.100000
vn 0.000000 0.000000 0.100000
vn 0.000000 0.000000 0.100000
vn 0.000000 0.000000 0.100000
vn 0.000000 0.000000 0.100000
vn 0.000000 0.000000 0.100000
vn 0.000000 0.000000 0.100000
vn 0.000000 0.000000 0.100000
vn 0.000000 0.000000 -0.100000
vn 0.000000 0.000000 -0.100000
vn 0.000000 0.000000 -0.100000
vn 0.000000 0.000000 -0.100000
vn 0.000000 0.000000 -0.100000
vn 0.000000 0.000000 -0.100000
vn 0.000000 0.000000 -0.100000
vn 0.000000 0.000000 -0.100000
usemtl Acier_-_Satiné
f 25/73/73 26/74/74 28/75/75
f 28/75/75 26/74/74 27/76/76
f 29/77/77 25/78/78 30/79/79
f 30/79/79 25/78/78 28/80/80
f 31/81/81 29/82/82 32/83/83
f 32/83/83 29/82/82 30/84/84
f 33/85/85 31/86/86 34/87/87
f 34/87/87 31/86/86 32/88/88
f 35/89/89 33/90/90 36/91/91
f 36/91/91 33/90/90 34/92/92
f 37/93/93 35/94/94 38/95/95
f 38/95/95 35/94/94 36/96/96
f 39/97/97 37/98/98 40/99/99
f 40/99/99 37/98/98 38/100/100
f 26/101/101 39/102/102 27/103/103
f 27/103/103 39/102/102 40/104/104
f 27/105/105 40/106/106 28/107/107
f 28/107/107 40/106/106 38/108/108
f 28/107/107 38/108/108 32/109/109
f 32/109/109 38/108/108 34/110/110
f 34/110/110 38/108/108 36/111/111
f 32/109/109 30/112/112 28/107/107
f 39/113/113 26/114/114 37/115/115
f 37/115/115 26/114/114 25/116/116
f 37/115/115 25/116/116 33/117/117
f 33/117/117 25/116/116 31/118/118
f 31/118/118 25/116/116 29/119/119
f 33/117/117 35/120/120 37/115/115
# 40 vertices
# 120 texture params
# 120 normals
# 64 facets

# 4 groups
